<svg fill="white" height="2143pt" preserveAspectRatio="xMidYMid meet" viewBox="0 0 2143 2143" width="2143pt"
     xmlns="http://www.w3.org/2000/svg">
    <path d="m10170 21370c-2672-148-5119-1238-6995-3114-1201-1201-2078-2629-2603-4236-507-1551-649-3235-411-4860 134-910 377-1777 741-2635 95-226 339-726 463-950 323-587 722-1171 1148-1682 420-503 958-1037 1462-1448 977-799 2098-1422 3285-1826 577-197 1134-336 1768-442l22-4v3728 3729h-1355-1355v1545 1545h1355 1354l4 1392c4 1498 2 1453 57 1827 153 1033 603 1876 1302 2438 559 449 1252 719 2077 808 626 68 1672 14 2732-141 130-18 240-34 243-34s6-591 6-1314v-1315l-797-4c-532-3-825-8-878-16-240-35-454-95-605-171-451-226-711-616-785-1178-13-94-15-294-15-1203v-1089h1475c1386 0 1475-1 1475-17 0-18-457-3010-465-3050l-5-23h-1240-1240v-3726-3727l53 7c192 26 717 138 1012 216 718 192 1366 437 2035 772 2313 1154 4145 3137 5118 5538 440 1088 689 2202 763 3425 15 248 15 907 0 1155-68 1132-280 2143-663 3170-837 2241-2447 4172-4508 5406-501 300-1110 599-1620 795-1030 395-2023 615-3155 700-190 14-1050 20-1255 9z"
          transform="matrix(.1 0 0 -.1 0 2143)"/>
</svg>