<?xml version="1.0" encoding="utf-8"?>
<!-- Generator: Adobe Illustrator 19.0.0, SVG Export Plug-In . SVG Version: 6.00 Build 0)  -->
<svg version="1.1" id="Layer_1" xmlns="http://www.w3.org/2000/svg" x="0px" y="0px"
	 width="595.3px" height="841.9px" viewBox="0 0 595.3 841.9" style="enable-background:new 0 0 595.3 841.9;"
	 xml:space="preserve"
>
<style type="text/css">
	.st0{fill:#2E5F6D;}
	.st1{fill:#346975;}
	.st2{fill:#24495B;}
	.st3{fill:#30312C;}
	.st4{fill:#565550;}
	.st5{fill:#464540;}
	.st6{fill:#34A4C9;}
	.st7{fill:#D59E65;}
	.st8{fill:#3A3637;}
	.st9{fill:url(#XMLID_188_);}
	.st10{fill:url(#XMLID_190_);}
	.st11{fill:url(#XMLID_191_);}
	.st12{fill:url(#XMLID_192_);}
	.st13{fill:url(#XMLID_193_);}
	.st14{fill:#BAD5C2;}
	.st15{fill:#47464B;}
	.st16{fill:#2A8695;}
	.st17{fill:#B56748;}
	.st18{fill:#6D3D39;}
	.st19{fill:#172D38;}
	.st20{fill:#D28BB3;}
	.st21{fill:#9D5B4F;}
	.st22{fill:#D38766;}
	.st23{fill:url(#XMLID_202_);}
	.st24{fill:#EDBB8E;}
	.st25{fill:#739272;}
	.st26{fill:#F2FDB1;}
	.st27{fill:#47C1E2;}
	.st28{fill:#036A97;}
	.st29{opacity:0.8;fill:#3CA89B;}
</style>
	<g id="XMLID_173_">
	<rect id="XMLID_1_" class="st0" width="595.3" height="841.9"/>
		<g id="XMLID_2_">
		<path id="XMLID_204_" class="st1" d="M569.5,597.9c4.1-1.1,8.1-2.1,12.1-3.2c-34.1-86.7-79.4-169.6-133.3-246.6
			c-4.2-6.6-8.4-13.2-12.7-19.7c-57-86.2-124.4-165.9-200.6-236.8l-2.6-2.4l-1.9,3c-2.2,3.4-4.3,6.7-6.4,10.1
			c-1.4-1.2-2.9-2.4-4.3-3.7c-22.3,38.8-42.5,78.9-60.6,119.9c-14.3,29-27.5,58.6-39.5,88.6c-18.8,47.1-34.9,95.3-48,144.2
			c1.2-5.4,2.4-10.9,3.7-16.6c0.7-3,1.3-6.1,2.1-9.3c0.8-3.1,1.6-6.3,2.4-9.4c1.6-6.4,3.1-12.9,4.9-19.5c1.8-6.6,3.6-13.3,5.5-20
			c0.9-3.4,1.8-6.8,2.9-10.2c1-3.4,2-6.8,3.1-10.2c3.9-13.8,8.7-27.5,13.2-41.3c4.9-13.7,9.5-27.5,14.8-40.8c1.3-3.3,2.6-6.7,3.8-10
			c1.2-3.3,2.6-6.6,3.9-9.8c2.7-6.5,5.3-12.9,7.9-19.2c2.7-6.3,5.4-12.4,8-18.4c1.3-3,2.6-6,3.9-8.9c1.3-2.9,2.7-5.8,4-8.6
			c2.6-5.7,5.2-11.2,7.7-16.5c1.2-2.7,2.6-5.2,3.8-7.8c1.3-2.5,2.5-5,3.7-7.5c2.4-4.9,4.8-9.6,7-14c2.3-4.4,4.5-8.6,6.6-12.5
			c2.1-3.9,4-7.6,5.8-11c1.8-3.4,3.6-6.4,5.1-9.2c3.1-5.6,5.5-10,7.2-13c1.6-3,2.5-4.6,2.5-4.6s-1,1.5-2.8,4.5
			c-1.8,2.9-4.5,7.2-7.8,12.6c-1.6,2.7-3.5,5.7-5.5,9c-1.9,3.3-4,6.9-6.2,10.8c-2.2,3.9-4.6,8-7,12.3c-2.4,4.4-4.8,9-7.4,13.8
			c-1.3,2.4-2.6,4.9-3.9,7.4c-1.3,2.5-2.7,5.1-4,7.7c-2.6,5.3-5.3,10.8-8.1,16.4c-1.4,2.8-2.8,5.7-4.2,8.6c-1.3,2.9-2.7,5.9-4.1,8.9
			c-2.7,6-5.6,12.1-8.3,18.4c-5.3,12.6-11,25.6-16.1,39c-5.4,13.3-10.1,27.2-15,40.9c-4.5,13.9-9.2,27.7-13,41.6
			c-4.2,13.7-7.6,27.5-11.1,40.7c-0.9,3.3-1.6,6.6-2.4,9.9c-0.8,3.3-1.5,6.5-2.2,9.7c-0.7,3.2-1.5,6.4-2.2,9.5
			c-0.7,3.1-1.3,6.3-1.9,9.3c-1.2,6.1-2.4,12.1-3.6,17.9c-0.6,2.9-1,5.8-1.5,8.6c-0.5,2.8-0.9,5.6-1.4,8.3
			c-0.9,5.4-1.8,10.6-2.6,15.5c-0.3,2.5-0.7,4.9-1,7.3c-3.7,15.8-7.1,31.7-10.1,47.6l-0.4,2.2l2,1c3.8,2,7.6,3.9,11.4,5.8
			c-0.2,1.6-0.5,3.2-0.7,4.8c42.8,19.6,87.3,35,132.8,46.3c35.6,10.1,72,17.6,109.2,22.5c33.7,4.5,67.4,6.7,100.9,6.7
			c55.2,0,109.9-6,163.6-18.1l3.2-0.7l-1.1-3.2C571.4,603.6,570.5,600.8,569.5,597.9z M233.5,98.4c50.2,47,96.2,97.3,137.7,150.3
			c-43.9-51.2-91.8-99-142.6-142.6C230.2,103.6,231.9,101,233.5,98.4z M57.8,538c12-62,29-123.5,50.5-183.6
			c-19,61.3-33.4,124-42.9,187.4C62.8,540.6,60.3,539.3,57.8,538z M369.8,621.7c65.1,1,130.4-6.4,193.9-22.3c0.7,1.9,1.3,3.8,2,5.7
			C501.1,619.3,435.2,624.8,369.8,621.7z"/>
			<path id="XMLID_117_" class="st2"
				  d="M585,747.4c0,0-77.2,8-172.4,8s-172.4-8-172.4-8s77.2-8,172.4-8S585,747.4,585,747.4z"/>
			<path id="XMLID_180_" class="st2" d="M314.8,766.1c0,0-18.4,4.8-41.2,4.8c-22.8,0-41.2-4.8-41.2-4.8s18.4-4.8,41.2-4.8
			C296.3,761.2,314.8,766.1,314.8,766.1z"/>
			<path id="XMLID_185_" class="st2" d="M345.2,778.1c0,0-10.1,2.6-22.6,2.6c-12.5,0-22.6-2.6-22.6-2.6s10.1-2.6,22.6-2.6
			C335.1,775.5,345.2,778.1,345.2,778.1z"/>
			<g id="XMLID_30_">
			<path id="XMLID_25_" class="st3" d="M296.2,736.5c-4.4-1.3-8.7-2.8-13.2-3.2c-11.9-1.1-23,5.3-33.1,11.6
				c-0.3,2.2,2.6,3.2,4.8,3.4c23.2,2.1,55.4,1.4,77.8-4.7c0.1,1.9-0.9,3-0.8,4.9c7.6,0.5,7.7-0.5,15.2-1.9c0.7-5,0.4-13.5-3.6-17.1
				c-1.5,1.8-1.9,4.4-3.5,6.1c-3,3.1-8.4,3.8-12.5,4.4C316.9,741.3,306.2,739.4,296.2,736.5z"/>
				<path id="XMLID_26_" class="st3" d="M516.5,743.3c-5.9,1.4-12.1,2.5-16.9,6.2c-4.1,3.3-6.5,8.2-8.8,12.9
				c-0.3,0.7-0.7,1.5-0.2,2.2c0.3,0.5,0.9,0.6,1.5,0.7c13.7,2.3,28-2.4,39.3-10.5c8.2-5.9,16.5-14,26.6-13.2c2.7,0.2-3.1-7.4-4.4-8
				c-3.3-1.5-6.2-0.9-9.4,0.2C534.8,737,526.2,741,516.5,743.3z"/>
				<path id="XMLID_24_" class="st4" d="M484.7,525.9c12.7,37,22.2,75.1,28.4,113.7c1.1,6.7,2.1,13.5,4.2,20c1.6,5,4,9.7,6.3,14.5
				c9.4,19.2,18.1,39.2,27.5,58.4c-2.3,1.1-4.6,0.8-7,2c-25.5-24.2-51.1-48.5-73.8-75.5c-5.1-6.1-10.1-12.3-14-19.2
				c-4.5-8-7.5-16.7-10.8-25.3c-5.6-14.6-11.8-27.7-18.3-41.9c-30,53.2-68,105.4-81.3,165c-2.4-0.2-4.6-1.2-6.8-2.1
				c-0.3-22.1-0.1-44.2,0.5-66.3c0.6-19.2,1.5-38.8,8.5-56.7c2.7-7.1,6.3-13.8,10-20.4c10.7-19.6,21.5-39.1,32.5-58.5
				c8.6-15.2,27.3-22.9,44.8-22.3S468.7,519,484.7,525.9z"/>
				<path id="XMLID_157_" class="st5" d="M492.7,551c-2.5-8.4-5.2-16.7-8.1-25c-16-7-31.8-14.2-49.3-14.8s-36.2,7.2-44.8,22.3
				c-3.4,6-6.8,12.1-10.2,18.1C417.5,547.4,455.4,547,492.7,551z"/>
				<path id="XMLID_168_" class="st5" d="M339.7,669.2c-0.6,22.1-0.8,44.2-0.5,66.3c2.2,0.9,4.4,1.9,6.8,2.1
				c7.8-35.1,24.1-67.6,42.4-99.2c-15.6,8.6-31.9,16.2-48.4,23.1C339.8,664,339.8,666.6,339.7,669.2z"/>
				<path id="XMLID_170_" class="st5" d="M523.5,674.1c-2.3-4.7-4.6-9.5-6.3-14.5c-2.1-6.5-3.1-13.3-4.2-20
				c-5-31-12.1-61.7-21.3-91.8c-14.4,21.4-31.6,39.6-50.8,55.4c1.6,3.7,3.1,7.4,4.5,11.3c3.3,8.6,6.3,17.3,10.8,25.3
				c3.9,6.9,8.9,13.1,14,19.2c22.7,26.9,48.3,51.2,73.8,75.5c2.3-1.1,4.6-0.8,7-2C541.6,713.3,532.9,693.3,523.5,674.1z"/>
				<path id="XMLID_143_" class="st6" d="M555.9,502.7c-15.9,6.6-31.7,13.4-47.4,20.5c4.3,6.5,7.9,13.2,10.9,20.2
				c13.8-10.1,28.7-21.4,41.9-31c1.8-1.3,2.6-3.5,2.2-5.6c0,0,0-0.1,0-0.1C562.7,503.3,559.1,501.4,555.9,502.7z"/>
				<path id="XMLID_27_" class="st7" d="M545.1,477.8c2.2,4.4,0.2,9.8,1,14.6c0.8,4.8,4.2,8.7,6.5,13c1.9,3.6,3.1,7.6,3.4,11.7
				c0.3,4.3-0.9,9.4-5,10.8c-2.4,0.8-5.3,0.2-7,2c-1,1.1-1.2,2.7-2.4,3.5c-1.7,1.2-4.1,0-6,0.8c-2.4,1-3.5,4.7-6.1,4.6
				c-2.2-0.2-3-3-3.1-5.3c-0.3-4.7-1.4-9.4-1.7-14.1c-3.2-0.9-6.3,1.1-9.4,2.1c-2,0.7-4.1,1.1-6.2,1.1c-1.8,0-3.7-0.3-5.1-1.4
				c-1.4-1.1-2-3.4-0.9-4.8c0.8-1.1,2.4-1.5,3.7-1.8c2.9-0.7,5.8-1.8,8.2-3.5c5.1-3.5,8.8-10.2,14.7-12.1c0.6-4.5,0.3-9.2-0.8-13.6
				c3.9-1.1,8-2.5,11.8-3.7C541.3,481.5,544.7,478.4,545.1,477.8z"/>
				<path id="XMLID_39_" class="st8" d="M217.4,456c-1.7-4.9-3.4-9.8-5.1-14.6c-0.4-1.2,1.1-1.8,2.1-2.5c1-0.7,2.4-0.7,3.5-0.1
				c1.6,4.5,3.7,8.9,5.3,13.5c0.5,1.5,1,3.3,0,4.6c-0.7,0.9-2,1.2-3.2,0.9C219,457.5,218.3,456.7,217.4,456z"/>
				<linearGradient id="XMLID_188_" gradientUnits="userSpaceOnUse" x1="220.0299" y1="467.3465" x2="259.3012"
								y2="467.3465">
				<stop offset="0" style="stop-color:#D55465"/>
					<stop offset="0.8572" style="stop-color:#CB9761"/>
			</linearGradient>
				<path id="XMLID_38_" class="st9" d="M224.7,479.9c6,4.4,15.1-1.4,21.8,2c1.8,0.9,3.3,2.5,5,3.6c1.7,1.1,4,1.8,5.8,0.8
				c2.3-1.3,2.4-4.7,1.1-7c-1.4-2.2-3.8-3.6-6-5c-10.5-6.5-14.1-15.2-20.9-25.5c-1.2-1.8-5-0.5-6.5,1.1s-2.1,3.7-2.6,5.8
				c-1.3,5-2,10.2-2.3,15.4c-0.1,1.8-0.1,3.7,0.4,5.5c0.5,1.8,1.8,3.4,3.5,4C223.9,480.2,224.8,480.2,224.7,479.9z"/>
				<path id="XMLID_37_" class="st8" d="M229.5,467.3c2.1,9.2,7.5,25.5,10.1,33.2c1,2.8-1.7,5.7-4.5,4.8c0,0-0.1,0-0.1,0
				c-1.1-0.4-1.9-1.2-2.3-2.3l-9.4-27.9C224,471.9,226.5,468.7,229.5,467.3z"/>
				<linearGradient id="XMLID_190_" gradientUnits="userSpaceOnUse" x1="217.5398" y1="446.6367" x2="213.2065"
								y2="464.97">
				<stop offset="0" style="stop-color:#D55465"/>
					<stop offset="0.8572" style="stop-color:#CB9761"/>
			</linearGradient>
				<path id="XMLID_33_" class="st10" d="M222,452.4c-1.9-0.6-3.8-1.3-5.8-1.4c-2-0.2-4.1,0.2-5.7,1.4c-0.9,0.7-1.6,1.6-2.3,2.5
				c-1.6,2.3-2.8,4.8-3.7,7.4c-0.7,2.1,2,4.4,3.7,5.7c0.3,0.2,0.6,0.4,0.9,0.3c0.3-0.1,0.4-0.4,0.5-0.7c1.2-2.8,2.9-5.4,5-7.6
				c0.8-0.8,1.6-1.6,2.7-2c2.2-0.9,4.7,0.1,7.1-0.4C224.1,455,223,454.7,222,452.4z"/>
				<linearGradient id="XMLID_191_" gradientUnits="userSpaceOnUse" x1="218.5884" y1="450.4856" x2="217.255"
								y2="473.1523">
				<stop offset="0" style="stop-color:#D55465"/>
					<stop offset="0.8572" style="stop-color:#CB9761"/>
			</linearGradient>
				<path id="XMLID_34_" class="st11" d="M212.7,456.1c0.5-0.8,1.2-1.7,2.1-2.1c1.7-0.8,3.6,0.1,5.3,1c1.4,0.7,2.7,1.4,4.1,2.2
				c0.7,0.4,1.4,0.7,1.9,1.3c1.1,1.3,0.8,3.3,0.4,4.9c-3.3,0.8-6.9,1.7-9.1,4.3c-1.3,1.5-2,3.5-2.6,5.4c-0.2,0.7-0.5,1.4-1.1,1.8
				c-3.6,2.6-5.1-5-5.1-6.9C208.9,463.9,210.5,459.6,212.7,456.1z"/>
				<linearGradient id="XMLID_192_" gradientUnits="userSpaceOnUse" x1="224.075" y1="457.8885" x2="219.7416"
								y2="478.8885">
				<stop offset="0" style="stop-color:#D55465"/>
					<stop offset="0.8572" style="stop-color:#CB9761"/>
			</linearGradient>
				<path id="XMLID_35_" class="st12" d="M216.8,464.7c0.2-0.4,0.5-0.8,0.9-1.1c0.5-0.3,1-0.3,1.6-0.4c2.4-0.1,4.7-0.3,7.1-0.4
				c1.2-0.1,2.6,0,3.2,1c0.6,1-0.1,2.3-0.9,3.2c-1.6,1.7-3.7,2.9-5.5,4.3c-1.8,1.4-3.5,3.3-3.9,5.6c-0.6,4.2-4.1,4.2-5.3,0.3
				C212.8,473.6,215,467.8,216.8,464.7z"/>
				<linearGradient id="XMLID_193_" gradientUnits="userSpaceOnUse" x1="227.9215" y1="456.9412" x2="225.2548"
								y2="475.6078">
				<stop offset="0" style="stop-color:#D55465"/>
					<stop offset="0.8572" style="stop-color:#CB9761"/>
			</linearGradient>
				<path id="XMLID_36_" class="st13" d="M222.4,468.2c2.2-2,5.3-2.5,8.2-2.6c0.4,0,0.7,0,1,0.2c0.3,0.2,0.4,0.5,0.5,0.8
				c0.7,2.2-0.2,4.9-2,6.3c-0.8,0.6-1.7,0.9-2.4,1.5c-2.1,1.5-2.9,4.3-3.5,6.8c-1,4.3-4.6,1.1-5.1-1.6
				C218.5,476.2,219.9,470.5,222.4,468.2z"/>
				<path id="XMLID_32_" class="st7" d="M261.3,477c-5.2-2.6-10.1-6-14.2-10.1c-3-2.9-3.1-7.4-5.7-10.6c-1.7-2.1-3.8-3.9-5.9-5.6
				c-2-1.6-4-3.3-6-4.9c-1.7-1.4-3.4-2.8-5.3-3.7c-0.7-0.3-1.5-0.6-2.3-0.5c-1.6,0.2-2.6,1.9-3,3.5c-0.9,3.3-0.3,6.9,1.1,10.1
				c1.3,3.2,3.4,6,5.4,8.8c1.4,1.8,3.3,3.8,5.5,3.5c0.4-0.1,0.8-0.2,1.1-0.6c0.3-0.4,0.3-0.9,0.3-1.4c-0.2-4.9-1.7-9.7-4.5-13.7
				c2.6,2.9,4.6,6.1,6,9.8c0.6,1.7,1.1,3.5,1.8,5.2c2,4.7,6.3,8.4,11.3,9.7c4.9,1.3,7.7,6.4,12.1,8.9c0.5,0.3,1,0.5,1.5,0.4
				c0.9-0.2,1.3-1.3,1.4-2.2C262.4,481.6,262.3,478.8,261.3,477z"/>
				<path id="XMLID_23_" class="st14" d="M257.5,490.5c-2.8-1.8-5.5-3.7-8.1-5.8c1.9-4.8,3.6-10.6,4.3-15.7c3,3.1,6.7,5,10.7,6.9
				L257.5,490.5z"/>
				<path id="XMLID_22_" class="st14" d="M520.9,474.5c1.2,5.2,2.3,10.3,3.5,15.5c8.4,1.3,17.3-0.5,25.2-3.8
				c-1.2-5.6-1.9-11.4-3.9-16.8L520.9,474.5z"/>
				<path id="XMLID_21_" class="st15" d="M505.2,539.9c-23,13.1-52,17.9-78.2,14.1c-5.4-10.2-10.7-19.7-17-29.5
				c-0.2,10.3-0.9,20.5-0.7,30.8c-9.8-4.2-18.4-7.4-27.3-13.3c1.8-42.1-8.7-84.3-31.9-119.5c-3.8,19.6-4.7,39.7-2.6,59.6
				c0.6,5.8,1.5,11.8,0.4,17.5c-2.9,15.3-19.3,25.1-34.9,25s-29.9-8-42.5-17.1c-7.3-5.3-13.1-11.3-19.6-17.5c4.3-6.4,6.9-12.4,8-20
				c7.5,3.3,15.2,5.9,23.2,7.7c5.7,1.3,11.9,2.2,17.2-0.3c5.9-2.9,9.1-9.4,11.3-15.6c6.6-17.9,2.3-39.1,10.6-56.3
				c5.6-11.5,11.1-22.9,16.7-34.4c4.6-9.4,7-19.7,13.6-27.8c16.5,1.4,34.6-0.3,50.8-3.4c32,13.3,65.4,25,96.5,40.1
				c7.7,3.7,15.5,7.6,21.5,13.7c5.5,5.5,9.1,12.5,12.3,19.6c9.3,20.4,15.5,42.1,18.4,64.3c-9.7,4.9-21.8,5-32.3,2.2
				c-6.4-15.7-13.4-32.4-23.5-46c-10.1-13.6-23.6-25.1-39.8-30.3C481.3,443.8,499.5,492.4,505.2,539.9z"/>
				<g id="XMLID_19_">
				<path id="XMLID_113_" class="st16" d="M503.6,526.5c-0.2-1.4-0.4-2.9-0.6-4.4c-0.3-1.5-0.6-3.2-0.9-4.9c-0.3-1.7-0.6-3.5-1-5.3
					c-0.4-1.8-0.8-3.7-1.2-5.6c-0.4-1.9-0.9-3.9-1.4-5.9c-0.5-2-1-4.1-1.6-6.1c-1.2-4.1-2.3-8.4-3.7-12.7c-1.3-4.3-2.9-8.6-4.4-13
					c-1.7-4.3-3.2-8.6-5-12.7c-1.7-4.2-3.6-8.2-5.3-12.1c-0.9-2-1.8-3.8-2.8-5.7c-0.9-1.9-1.8-3.7-2.7-5.4c-0.9-1.7-1.8-3.4-2.7-5.1
					c-0.9-1.6-1.8-3.2-2.6-4.7c-0.8-1.5-1.7-2.9-2.4-4.3c-0.8-1.3-1.6-2.6-2.3-3.8c-1.4-2.4-2.7-4.5-3.8-6.1
					c-2.2-3.3-3.5-5.3-3.5-5.3s1.1,2,3.1,5.5c1,1.7,2.2,3.8,3.5,6.3c0.7,1.2,1.4,2.5,2.1,3.9c0.7,1.4,1.5,2.8,2.3,4.4
					c1.6,3,3.2,6.4,5,9.9c0.9,1.7,1.7,3.6,2.6,5.5c0.8,1.9,1.8,3.8,2.6,5.7c1.7,3.9,3.5,8,5.1,12.1c1.7,4.1,3.3,8.4,4.9,12.7
					c1.5,4.3,3.1,8.6,4.4,12.9c1.4,4.3,2.7,8.5,3.9,12.6c0.6,2.1,1.1,4.1,1.7,6.1c0.5,2,1.1,3.9,1.5,5.8c0.9,3.8,1.8,7.4,2.5,10.8
					c0.4,1.7,0.7,3.3,1.1,4.8c0.3,1.5,0.6,3,0.8,4.4c0.5,2.7,1,5.1,1.3,7.1c0.7,3.9,1,6.2,1,6.2s-0.2-2.3-0.7-6.3
					C504.4,531.7,504,529.2,503.6,526.5z"/>
					<path id="XMLID_115_" class="st16" d="M546.4,450.3c-2.2-9-5-17.7-8.3-26.4c-1.6-4.3-3.4-8.6-5.3-12.8
					c-1.9-4.2-4.1-8.3-6.7-12.2c-2.6-3.9-5.9-7.3-9.6-10.2c-3.7-2.9-7.8-5.2-11.9-7.3c-4.1-2.1-8.3-4.1-12.4-6
					c-4.2-2-8.4-3.8-12.6-5.6c-8.4-3.6-17-7.1-25.5-10.5c-8.5-3.4-17.1-6.7-25.7-10l-12.8-5c-4.3-1.7-8.5-3.4-12.8-5.1l-0.2-0.1
					l-0.2,0c-6.2,1.2-12.4,2.3-18.6,3c-3.1,0.4-6.3,0.7-9.4,0.9c-3.1,0.2-6.3,0.4-9.4,0.5c3.2,0,6.3,0,9.5-0.2
					c3.2-0.1,6.3-0.4,9.4-0.7c6.2-0.6,12.4-1.4,18.6-2.5c4.2,1.8,8.4,3.5,12.6,5.3l12.8,5.2l25.6,10.2c8.5,3.4,17,6.9,25.4,10.6
					c4.2,1.8,8.4,3.7,12.5,5.6c4.2,1.9,8.3,3.9,12.4,5.9c4.1,2.1,8,4.3,11.6,7c3.6,2.7,6.7,6,9.3,9.7c2.6,3.7,4.7,7.8,6.7,11.9
					c1.9,4.1,3.8,8.3,5.5,12.6c1.7,4.3,3.3,8.6,4.7,12.9c1.5,4.3,2.8,8.7,4,13.2c2.4,8.8,4.3,17.9,5.7,26.9
					C550.2,468.3,548.6,459.2,546.4,450.3z"/>
					<path id="XMLID_116_" class="st16" d="M349.7,345.5c-0.6,0.7-1.3,1.7-2,2.8c-0.7,1.1-1.5,2.4-2.3,3.9c-1.6,2.9-3.1,6.4-4.6,10.1
					c-0.8,1.9-1.6,3.8-2.5,5.7c-0.9,1.9-1.8,3.9-2.8,5.8c-0.9,2-1.9,3.9-2.8,5.8c-0.9,1.9-1.8,3.8-2.6,5.7
					c-1.7,3.7-3.3,7.1-4.6,10.1c-1.3,3-2.3,5.5-3.1,7.2c-0.7,1.8-1.1,2.8-1.1,2.8s0.6-0.9,1.5-2.6c0.9-1.7,2.2-4,3.8-6.9
					c1.5-2.9,3.3-6.2,5.1-9.9c0.9-1.8,1.9-3.7,2.8-5.6c0.9-1.9,1.9-3.9,2.8-5.8c0.9-2,1.9-3.9,2.7-5.9c0.9-2,1.6-4,2.3-5.8
					c1.4-3.8,2.7-7.3,4-10.3c0.6-1.5,1.3-2.8,1.9-4c0.6-1.2,1.2-2.2,1.7-3c0.5-0.8,0.9-1.4,1.2-1.9c0.3-0.4,0.4-0.7,0.4-0.7
					s-0.2,0.2-0.5,0.6C350.8,344.2,350.3,344.7,349.7,345.5z"/>
			</g>
				<g id="XMLID_61_">
				<path id="XMLID_76_" class="st8" d="M336.7,469.8c0.3,13-8.2,24.8-20.8,28.1c-0.1,0-0.2,0-0.2,0.1c-20.8,5.4-43.3-0.3-62-11
					c-0.2-0.1-0.4-0.2-0.6-0.4c-0.7,1.1-1.3,2.2-2.1,3.4c6.5,6.2,12.4,12.2,19.6,17.5c12.6,9.1,27,17,42.5,17.1
					c6.9,0.1,14-1.9,20-5.4c0.1,0,0.2-0.1,0.2-0.1c0.4-0.2,0.8-0.5,1.2-0.7c0.1-0.1,0.2-0.1,0.3-0.2c0.4-0.2,0.7-0.5,1.1-0.7
					c0.1-0.1,0.2-0.1,0.3-0.2c0.4-0.3,0.8-0.6,1.2-0.9c0,0,0.1-0.1,0.1-0.1c0.9-0.7,1.7-1.4,2.5-2.2c0.1-0.1,0.1-0.1,0.2-0.2
					c0.3-0.3,0.6-0.6,0.9-0.9c0.1-0.1,0.2-0.2,0.3-0.3c0.3-0.3,0.5-0.6,0.7-0.9c0.1-0.1,0.2-0.3,0.3-0.4c0.2-0.3,0.5-0.6,0.7-0.9
					c0.1-0.1,0.2-0.2,0.3-0.4c0.3-0.4,0.5-0.7,0.8-1.1c0-0.1,0.1-0.1,0.1-0.2c0.3-0.4,0.6-0.9,0.8-1.4c0.1-0.1,0.1-0.2,0.2-0.3
					c0.2-0.4,0.4-0.7,0.6-1.1c0.1-0.2,0.2-0.3,0.2-0.5c0.1-0.3,0.3-0.6,0.4-0.9c0.1-0.2,0.1-0.4,0.2-0.5c0.1-0.3,0.2-0.6,0.3-0.9
					c0.1-0.2,0.1-0.4,0.2-0.6c0.1-0.3,0.2-0.7,0.3-1c0-0.2,0.1-0.3,0.1-0.5c0.1-0.5,0.2-1,0.3-1.6c1.1-5.8,0.2-11.7-0.4-17.5
					c-0.2-1.9-0.4-3.8-0.5-5.7c-1.4-18-0.4-36.2,3.1-53.9c0.6,0.9,1.2,1.9,1.8,2.8c-1.9-4.9-4.2-9.7-7-14.4
					C335.4,429.5,336.2,449.5,336.7,469.8z"/>
					<path id="XMLID_79_" class="st8" d="M526.3,444c-22.8-36.7-62.8-62.3-105.8-66.4c20.5,13.6,26.7,16.4,38.5,27
					c14.7,5.6,27,16.5,36.4,29.1c10.1,13.6,17.2,30.3,23.5,46c8.2,2.1,17.4,2.6,25.6,0.3C539.4,467.6,533.4,455.5,526.3,444z"/>
			</g>
				<path id="XMLID_75_" class="st8" d="M382.3,532.1c0,3.3,0,6.6-0.2,9.9c8.9,5.9,17.5,9.1,27.3,13.3c-0.3-10.3,0.5-20.5,0.7-30.8
				c6.3,9.7,11.6,19.2,17,29.5c26.2,3.9,55.2-1,78.2-14.1c-5.8-47.5-23.9-96.1-49.5-136.5c1.5,0.5,2.9,1,4.4,1.6
				c-2.5-2.9-5.1-5.8-7.8-8.5C447.2,447.2,420.3,495.9,382.3,532.1z"/>
				<path id="XMLID_20_" class="st8" d="M403,499c-18.3-16.2-43.2-32.4-47.4-56.4c-0.8-4.6-1.2-9.9-1.1-14.6c-3.7-1.5-8.3-2.5-12-4
				c-7.5-18.1-10.6-38-9.1-57.5c1-13,7.8-24,15.7-34.4c10.5,10.5,22.8,17.8,36.4,23.7c8.9,13.6,17.5,27.2,24.4,41.9
				c-2.3,4.8-5.1,8.9-7.5,13.7c4.1,1.9,6.9,4.6,11.1,6.4C416,444.6,410.9,473.3,403,499z"/>
				<path id="XMLID_16_" class="st14" d="M343.5,358.6c-3.5,14-2.7,29.1,2.3,42.7c10.5,28.7,28.8,55.2,47.4,79.5
				c0.5-36.7-3.3-74.2-11.7-109.9c-8.9-5.5-18.1-11.8-27.1-17.3c-2-1.2-4-2.5-6.3-2.5S344,356.4,343.5,358.6z"/>
				<path id="XMLID_72_" class="st14" d="M388.2,406.5c-1.8-12-4-23.9-6.8-35.6c-8.9-5.5-18.1-11.8-27.1-17.3c-2-1.2-4-2.5-6.3-2.5
				c-2.3-0.1-4,5.3-4.6,7.5c-3.5,14-2.7,29.1,2.3,42.7c2.1,5.8,4.6,11.5,7.3,17.1l9-21.4L388.2,406.5z"/>
				<path id="XMLID_15_" class="st7" d="M347.2,334.3c2.9,11.5,9.7,22.2,17.3,31.2c1.5,10.1-2,21.3-2.5,31.5c0,0-7.9-7.5-9.3-13.1
				c-2.4-9.8-6.5-19.3-12-27.8C342.9,349.3,345.1,341.2,347.2,334.3z"/>
				<path id="XMLID_94_" class="st17" d="M340.8,356.1c2.8,4.3,5.1,8.8,7.2,13.5c5-2,9.5-4.5,13.9-7.5c-6.5-8.3-12-17.8-14.6-27.8
				C345.1,341.2,342.9,349.3,340.8,356.1z"/>
				<path id="XMLID_8_" class="st7" d="M267.4,367.9c0.7,3.3,1.5,6.8,3.8,9.4c1.8,2.1,4.4,3.3,7,4.5c11.9,5.6,24.3,11.3,37.4,10.9
				c2.7-0.1,5.4-0.4,7.7-1.6c2.8-1.5,4.8-4.1,6.7-6.7c14.2-19.5,26.7-42,26.1-66.1c-0.4-15.5-6.2-30.4-12.4-44.6
				c-3.9-8.9-8.1-17.8-14.4-25.2c-6.3-7.4-15-13.2-24.6-14.1c-12.2-1.2-23.6,5.3-33.9,11.9c-10,6.3-30.5,19.5-27.6,33.6
				c1.9,9,7.4,18.3,10.1,27.3c2.8,9.2,5.1,18.5,7.2,27.9C262.9,346,265,357,267.4,367.9z"/>
				<path id="XMLID_4_" class="st18" d="M350.8,286c0.3,13-0.4,28.1-1.1,41.1c-2.6-8-5.4-15.1-8.7-22.9c-9-0.6-17.4-5.5-21.1-13.7
				c0.4,2.5-0.3,5,0.1,7.5c-1.9-0.6-3-2.7-3.7-4.6c-6.9-16.4-13.4-32.1-17.1-49.5c-1.3,12.3,1,30.8-10.5,35.1
				c-11.7,4.3-22.7,10.7-32.3,18.7c-5.8,4.9-11.7,10.6-12.2,18.2c0.2-9.4,2.3-17.8,5.2-26.7c-5.8,6-11.1,14.1-13.6,22.1
				c-6.8-9.6-9.1-22-7.9-33.7c1.2-11.7,5.5-22.9,10.8-33.5c23-12.2,43.2-18.3,64-13.5c4.8-4,10.5-5.5,16.8-5.6
				c-2.4,1-4.4,2.7-5.8,4.9c21-8.4,27.9,12,31.2,19.1C350.3,260.8,350.6,272.9,350.8,286z"/>
				<path id="XMLID_10_" class="st19" d="M273.6,303.1c0.8,1.6,1.6,3.2,2.4,4.8c0.1-1.7-0.4-3.5,0.4-5c0.4-0.9,1.2-1.5,1.9-2.1
				c6.1-5.1,11-11.8,14.1-19.2c1.6,3.1-0.1,6.8-1.6,9.9c-2.9,5.7-6,11.6-11.1,15.4c-1.4,1.1-2.8,2.2-4.3,2.9
				C273.7,307.7,274.6,305.2,273.6,303.1z"/>
				<path id="XMLID_11_" class="st19" d="M267.1,313.4c-3.6-0.4-7.2-1-10.7-1.8c-4.7-1.1-9.7-2.8-12.5-6.8c4.5,2.6,9.7,3.8,14.8,3.7
				c0.6,0,1.3-0.1,1.9,0.1c0.5,0.2,1,0.5,1.5,0.9c0.9,0.7,1.9,1.5,2.9,2.2c-0.4-0.7-0.8-1.5-1-2.3C265,310.7,266,312.1,267.1,313.4z
				"/>
				<path id="XMLID_12_" class="st19" d="M298.3,330.2c1,1.3,2.2,2.7,3.7,3.2c0.3,0.1,0.6,0.1,0.8-0.1c0.2-0.2,0.2-0.4,0.1-0.7
				c-0.2-2.1-0.9-4.2-1.7-6.2c-3.3-8.3-8-16.1-13.9-22.8c-1.1-1.3-5.5-5.3-6-2.3c-0.3,1.9,3.5,7.5,4.4,9.2
				C289.4,317.5,293.6,324.1,298.3,330.2z"/>
				<path id="XMLID_13_" class="st19" d="M272,330.2c0.8,0.6,1.7,1.2,2.6,1c0.5-1.5-0.2-3.1-1-4.5c-1.3-2.5-2.7-5-4-7.4
				c-1.1-2-2.2-4.1-3.7-5.8c-1.5-1.7-3.5-3.1-5.8-3.5c-5-0.8,2,7.6,3,9.2C265.6,323.2,268.3,327.2,272,330.2z"/>
				<path id="XMLID_14_" class="st18" d="M268.5,375.5c2.8,5.7,8.4,9.4,14.2,11.9c-0.2-2.1-0.4-4.2-0.6-6.2c1.2,0.8,2.4,1.6,3.5,2.4
				c0.5,0.3,1,0.6,1.6,0.5c1.2-0.3,1-2.1,0.5-3.3c2.9,2.7,7.6,1.8,11.4,0.6c3.6-1.1,7.3-2.2,10.9-3.3c1.4-0.4,2.9-0.9,3.9-2
				c1-1.1,1.3-3,0.1-4c1.5,1.3,3.3,2.4,5.1,3.2c0.1-1.8-0.3-3.6-1-5.3c1.7,1,3.5,2,5.2,3c0.2-1.6,0-3.2-0.6-4.7c1.7,0,3.3,1,4.9,1.6
				c4,1.4,8.9,0,11.5-3.4c-6.2-7.8-16.4-11.4-26.2-13.3c-9.5-1.9-19.5-2.5-29.1-0.6c-6.1,1.2-12.4,2.5-15.1,8.6
				C266.6,365.9,266.2,371,268.5,375.5z"/>
				<g id="XMLID_17_">
				<path id="XMLID_46_" class="st20" d="M368.6,410c0.2-3.5,0.4-6.9,0.6-10.4L362,397l-2.7,6.5c1.9,2.4,3.7,4.7,5.6,7.1
					c1.6,13.2,3.8,26.5,6.4,39.7c6.9,10.5,14.4,20.7,21.8,30.6c0.2-13.8-0.3-27.7-1.3-41.6C384.3,429.2,376.6,419.5,368.6,410z"/>
			</g>
				<path id="XMLID_3_" class="st21" d="M239.9,255.5c-0.4,2.7-0.8,5.4-1.2,8c2.4-1.8,4.8-3.7,7.2-5.5c0.4,1,0.8,2.1,1.2,3.1
				c7.2-1.4,14.3-2.9,21.5-4.3c0.6-0.1,1.4-0.2,1.9,0.2c1,0.8,0.2,2.3,0.4,3.6c0.3,2,3.1,2.5,4.8,1.5c1.7-1.1,2.5-3,3.5-4.7
				c1-1.7,2.5-3.4,4.5-3.5c0.5,2.6,4.4,3.2,6.4,1.5c2-1.7,2.7-4.5,3.1-7.1c2.2,5.3,1.5,11.7-2,16.3c-0.4-1.6-1.6-3-3.1-3.6
				c0.4,1.6-1.1,3.1-2.6,3.5c-1.6,0.5-3.2,0.3-4.8,0.7c-2.3,0.6-4.1,2.2-6,3.5s-4.2,2.5-6.5,1.9c-2.2-0.6-3.8-3.7-2.1-5.4
				c-5.7,5.5-15.2,6.4-21.9,2.1c-1.9,0.6-2.7,2.8-3.6,4.6c-0.8,1.8-2.6,3.8-4.5,3.2c-1.3-0.4-1.9-1.9-1.9-3.2s0.7-2.6,1.3-3.8
				c-1.8,4.3-2.6,9.1-2.3,13.8c-1.4-4-1.2-9.6-0.3-13.7C234,263.7,236.9,259.6,239.9,255.5z"/>
				<path id="XMLID_7_" class="st21" d="M309.4,257.7c0.1,1.9,1.9,3.3,3.8,3.6c1.9,0.3,3.7-0.3,5.5-0.9c1.1-0.3,2.2-0.7,3.3-1
				c3.9-1.2,8.9-2.3,11.7,0.7c-0.5-1.9,0.2-4.1,1.9-5.2c1.6-1.1,3.9-1,5.5,0.1c0.8-2.3,1-4.7,0.8-7.1c3.9,4.9,5.9,11.4,5.3,17.6
				c-0.5-2-1.5-3.9-3-5.3c0.2,1.8,0.3,3.8-0.7,5.3c-1,1.5-3.8,1.8-4.5,0.1c0.6,1.7-1,3.4-2.7,3.8s-3.5-0.1-5.2-0.5
				c-3.1-0.6-6.6-0.7-9.4,0.9s-4.7,5.1-3.5,8.1C315.3,271.3,308.8,265.5,309.4,257.7z"/>
				<g id="XMLID_44_">
				<path id="XMLID_47_" class="st16" d="M351,273.5c-0.1-1.9-0.2-3.9-0.4-6.1c-0.2-2.1-0.5-4.4-1-6.7c-0.5-2.3-1-4.7-1.9-7.1
					c-0.8-2.4-1.9-4.7-2.9-7c-1-2.3-2.1-4.6-3.3-6.8c-1.2-2.2-2.7-4.2-4.3-6c-1.6-1.8-3.5-3.3-5.4-4.4c-2-1.1-4-1.7-5.9-1.9
					c-1.9-0.3-3.7-0.1-5.2,0.1c-1.5,0.3-2.8,0.6-3.9,0.9c-1.1,0.3-1.8,0.7-2.4,0.9c-0.5,0.2-0.8,0.4-0.8,0.4s0.3-0.1,0.9-0.3
					c0.3-0.1,0.6-0.2,1-0.3c0.4-0.1,0.9-0.2,1.4-0.3c1.1-0.3,2.4-0.5,3.8-0.6c1.5-0.1,3.2,0,5,0.3c1.8,0.3,3.6,1,5.4,2.1
					c1.8,1.1,3.4,2.5,4.9,4.2c1.5,1.7,2.8,3.7,3.9,5.8c1.2,2.1,2.2,4.3,3.2,6.6c1.1,2.3,2.1,4.5,2.9,6.8c0.8,2.3,1.5,4.6,2,6.8
					c1.1,4.5,1.6,8.8,2,12.5c0.4,3.7,0.6,6.8,0.7,9c0.2,2.2,0.3,3.4,0.3,3.4s0.1-1.2,0.1-3.4c0-1.1,0-2.4,0.1-3.9
					C351,277.1,351,275.4,351,273.5z"/>
					<path id="XMLID_48_" class="st16" d="M319.3,225c-1.5,0-3,0-4.5,0.2c-1.5,0.2-3,0.5-4.5,0.9c-0.7,0.2-1.4,0.5-2.2,0.7
					c-0.7,0.3-1.4,0.6-2.1,1c-0.7,0.4-1.3,0.7-2,1.2c-0.6,0.4-1.1,0.8-1.7,1.2c-1.3-0.3-2.6-0.6-3.9-0.8c-1.4-0.2-2.8-0.4-4.2-0.6
					c-1.4-0.1-2.8-0.3-4.2-0.3c-1.4,0-2.8-0.1-4.2,0c-1.4,0.1-2.8,0.1-4.2,0.2c-1.4,0.1-2.8,0.2-4.2,0.5c-1.4,0.2-2.8,0.4-4.2,0.7
					l-2.1,0.4l-2,0.5l-2,0.5l-2,0.6l-2,0.6l-2,0.7l-2,0.7l-2,0.7c-1.3,0.5-2.6,1-3.9,1.6c-1.3,0.5-2.6,1.1-3.9,1.7
					c-1.3,0.6-2.6,1.1-3.8,1.8c-2.5,1.2-5,2.5-7.5,3.8l-0.3,0.1l-0.1,0.3c-2.6,5.3-5,10.8-6.9,16.4c-0.5,1.4-0.9,2.8-1.3,4.3
					c-0.4,1.4-0.8,2.9-1.1,4.3l-0.4,2.2l-0.4,2.2l-0.3,2.2l-0.2,2.2l-0.1,2.2l-0.1,2.2l0,2.2l0.1,2.2l0.2,2.2l0.3,2.2l0.4,2.2
					l0.5,2.2l0.6,2.2l0.7,2.1l0.8,2.1l0.9,2l1,2l1.1,1.9l1.2,1.9l1.3,1.8l-1.2-1.9l-1.1-1.9l-1-2l-0.9-2l-0.8-2.1l-0.7-2.1l-0.6-2.1
					l-0.5-2.1l-0.4-2.2l-0.3-2.2l-0.2-2.2l-0.1-2.2l0-2.2l0-2.2l0.1-2.2l0.2-2.2l0.3-2.2l0.4-2.1l0.4-2.1l0.5-2.1
					c0.3-1.4,0.7-2.8,1.1-4.2c0.4-1.4,0.9-2.8,1.3-4.2c1.9-5.4,4.2-10.7,6.8-15.8l3.4-1.8l3.7-1.8c1.2-0.6,2.5-1.2,3.8-1.8
					c1.3-0.6,2.5-1.1,3.8-1.7c1.3-0.6,2.6-1.1,3.8-1.6l1.9-0.8l2-0.7l2-0.7l2-0.6l2-0.6l2-0.5l2-0.5l2-0.4c0.7-0.1,1.3-0.3,2-0.4
					l2-0.3c1.4-0.3,2.7-0.4,4.1-0.6c1.4-0.2,2.7-0.2,4.1-0.3c1.4-0.1,2.8,0,4.1-0.1c1.4,0,2.8,0.1,4.1,0.2c1.4,0.1,2.7,0.3,4.1,0.5
					l4.1,0.7l0.2,0l0.2-0.1c0.6-0.5,1.1-0.9,1.7-1.4c0.6-0.4,1.2-0.8,1.9-1.2c0.6-0.4,1.3-0.7,2-1c0.7-0.3,1.4-0.6,2.1-0.8
					c0.7-0.2,1.4-0.4,2.1-0.6c0.7-0.2,1.5-0.3,2.2-0.5C316.3,225.2,317.8,225.1,319.3,225z"/>
			</g>
				<path id="XMLID_53_" class="st21" d="M275.1,375.3c-0.1-1.4-0.3-2.9-0.4-4.3c0,0,0,0,0,0c-0.5-0.8-0.9-1.7-1.2-2.6
				c-0.8,0.6-1.6,1.2-2.3,1.9c-0.5-0.9-1-1.8-1.5-2.7c0.8,1.4,0.1,4.5,0.9,6.3c0.6,1.4,1.6,2.8,2.8,3.8c-1-1.2-1.6-2.8-1.5-4.3
				C273,374,274.1,374.6,275.1,375.3z"/>
				<path id="XMLID_62_" class="st21" d="M275.3,367.3c0.2,1,0.5,2,0.9,2.9c0.8-0.4,1.7-0.6,2.5-0.8c-0.6-0.9-1.1-2-1.5-3
				C276.7,366.6,276,366.9,275.3,367.3z"/>
				<path id="XMLID_83_" class="st21" d="M290,360.2c-2.6,1.4-4.3,4.5-4.1,7.5c-1.2-2.5-4.7-2.7-7.5-1.8c0.5,1.1,1,2.2,1.5,3.3
				c1.1-0.1,2.2-0.1,3.2,0.2c0.1-0.5,0.1-1,0.2-1.6c1.6,0.9,3.2,1.8,4.8,2.7c-0.3-2.8,1.4-5.7,3.9-6.8
				C291.3,362.5,290.6,361.4,290,360.2C290,360.2,290,360.2,290,360.2z"/>
				<path id="XMLID_91_" class="st21" d="M316,358.1c-3.4-2.7-7.8-4.2-12.2-4c0.6,0.2,1.1,0.4,1.7,0.6c-1.9,2.3-4.7,3.6-7.6,3.7
				c0.2,0.8,0.4,1.7,0.7,2.5c-1-0.7-2.2-1.2-3.4-1.3c0.6,1.3,1.4,2.4,2.2,3.5c5-0.3,9.8-2.2,13.7-5.3
				C312.7,357.7,314.3,357.9,316,358.1z"/>
				<path id="XMLID_80_" class="st21" d="M291.7,359.5c0.8,1.2,1.5,2.4,2.3,3.5c0.8-0.1,1.6-0.1,2.5-0.2c-1.1-1.1-2.1-2.3-3-3.6
				C292.9,359.3,292.3,359.4,291.7,359.5z"/>

				<ellipse id="XMLID_43_" transform="matrix(0.9323 -0.3616 0.3616 0.9323 -99.7442 134.9205)" class="st22"
						 cx="310.6" cy="334" rx="16.6" ry="4.1"/>
				<linearGradient id="XMLID_202_" gradientUnits="userSpaceOnUse" x1="244.8801" y1="341.0603" x2="291.6845"
								y2="341.0603">
				<stop offset="0" style="stop-color:#D55465"/>
					<stop offset="0.8572" style="stop-color:#CB9761"/>
			</linearGradient>
				<path id="XMLID_9_" class="st23" d="M255.2,336.4c-2.8,1.2-5.6,2.7-8,4.6c-1.2,1-2.3,2.2-2.3,3.7c0,2.1,2.1,3.6,4.1,4.5
				c7.6,3.4,16.2,4.4,24.4,2.9c4.2-0.8,8.3-2.3,11.7-5c3.4-2.6,6-6.5,6.5-10.7C293.5,321.8,261.7,333.6,255.2,336.4z"/>
				<path id="XMLID_49_" class="st24" d="M278.9,329.5c0,0-0.3,0.1-0.8,0.2c-0.5,0.1-1.2,0.3-2.2,0.5c-1.9,0.4-4.5,1.2-7.6,2.2
				c-3.1,1-6.7,2.3-10.4,3.9c-1.9,0.8-3.8,1.6-5.6,2.6c-1.8,1-3.7,2.2-5.1,3.5c-0.7,0.7-1.2,1.4-1.3,2.2l0,0.1c0,0,0,0.1,0,0l0,0.1
				c0,0.1,0,0.3,0,0.3c0,0.1,0.1,0.3,0.1,0.5c0.2,0.4,0.4,0.7,0.7,1c0.6,0.6,1.5,1.2,2.4,1.6c0.4,0.2,0.9,0.4,1.4,0.6
				c0.5,0.2,0.9,0.4,1.4,0.6c3.7,1.5,7.4,2.2,10.6,2.6c1.6,0.2,3.1,0.3,4.4,0.3c1.3,0,2.5,0,3.4-0.1c0.9-0.1,1.7-0.1,2.2-0.2
				c0.5-0.1,0.8-0.1,0.8-0.1s-0.3,0.1-0.8,0.2c-0.5,0.1-1.2,0.3-2.2,0.5c-0.9,0.2-2.1,0.3-3.4,0.4c-1.3,0.1-2.9,0.2-4.5,0.1
				c-3.3-0.1-7.2-0.7-11.2-2.1c-0.5-0.2-1-0.4-1.5-0.6c-0.5-0.2-0.9-0.4-1.5-0.6c-1-0.5-2-1-2.9-1.9c-0.4-0.4-0.9-1-1.1-1.6
				c-0.1-0.3-0.2-0.6-0.3-1.1c0-0.2,0-0.3,0-0.5l0-0.1c0-0.2,0-0.1,0-0.2l0-0.3c0.2-1.5,1-2.6,1.9-3.4c1.7-1.6,3.6-2.8,5.6-3.8
				c2-1,4-1.8,5.9-2.5c3.9-1.4,7.6-2.5,10.8-3.3c3.2-0.8,5.9-1.2,7.8-1.5c1-0.1,1.7-0.2,2.2-0.2
				C278.6,329.6,278.9,329.5,278.9,329.5z"/>
				<path id="XMLID_5_" class="st7" d="M346.3,299c0-4,0.2-8.1,1.5-11.9c2.2-6.2,7.4-11.2,13.6-13.1c1.1-0.3,2.3-0.6,3.3-0.1
				c1,0.5,1.5,1.6,1.9,2.6c2.9,7.9,1.8,16.9-1.4,24.8c-3.2,7.8-8.2,14.8-13.2,21.6C347.2,315.2,346.3,308,346.3,299z"/>
				<path id="XMLID_6_" class="st17" d="M359.9,284.2c-1.9,4.2-3.8,8.5-5.8,12.7c3.2,0,6.3,1.9,7.9,4.7c-3.2-0.5-7.2-0.8-9.1,1.9
				c-0.7,1-1.1,2.5-1.5,3.6C345.2,302.6,358,288.4,359.9,284.2z"/>
				<polygon id="XMLID_18_" class="st25"
						 points="355.9,424.1 362,397 389,412.3 388.2,406.5 362,397 353,418.4 			"/>
				<g id="XMLID_56_">
				<path id="XMLID_40_" class="st6"
					  d="M212.3,441.3c0,0-50.3-39.8-39.8-94.3l12.5-5.9c0,0,39.8,29.6,32.9,97.8L212.3,441.3z"/>
					<path id="XMLID_42_" class="st26"
						  d="M177,351.6c0,0,25.1,31.9,31.7,79.9C208.7,431.5,171.5,395.3,177,351.6z"/>
					<g id="XMLID_51_">
					<path id="XMLID_124_" class="st27"
						  d="M197.7,360.1c-1.3-2.1-2.6-4.1-4.2-6.1l-8,3.8c1.5,2,3,4.1,4.5,6.3L197.7,360.1z"/>
						<path id="XMLID_126_" class="st27" d="M198.9,362.1l-7.6,3.7c3.5,5.1,6.8,10.6,9.6,16.1l4.6-3
						C204,372.7,201.9,367.3,198.9,362.1z"/>
						<path id="XMLID_144_" class="st27"
							  d="M203.2,386.5c1.2,2.6,2.2,5.2,3,7.8l2.5-0.8c-0.5-3.3-1.1-6.3-1.7-9.2L203.2,386.5z"/>
				</g>
			</g>
				<path id="XMLID_141_" class="st6" d="M494.4,529.6c5.5,6.7,10.3,13.9,13.9,21.8c3.5-2.5,7.2-5.2,11-8c-3-7-6.5-13.7-10.9-20.2
				C503.8,525.3,499.1,527.4,494.4,529.6z"/>
				<path id="XMLID_29_" class="st28" d="M514.4,551.4c-4-9.3-9.6-21.9-16.5-29.4c-8.4,3.2-17.4,5.6-26.2,7.5
				c8.7,14.1,16.2,28.4,23.7,43.1L514.4,551.4z"/>
				<g id="XMLID_121_">
				<path id="XMLID_125_" class="st6" d="M480.6,527.4c-3,0.8-5.9,1.4-8.9,2.1c8.7,14.1,16.2,28.4,23.7,43.1l7.1-7.9
					c-1.9-6-4.2-11.9-7.1-17.5C491.6,539.9,486.7,533,480.6,527.4z"/>
			</g>
				<polygon id="XMLID_28_" class="st29"
						 points="495.4,572.6 240.2,739.4 42.9,739.4 471.7,529.5 			"/>
				<path id="XMLID_31_" class="st26"
					  d="M471.7,529.5c0,0,18.4,11.5,23.7,43.1C495.4,572.6,473.7,564.4,471.7,529.5z"/>
				<path id="XMLID_41_" class="st26" d="M42.9,739.4c9-11.7,60.5-21.3,115-21.3s91.4,9.5,82.3,21.3c-9,11.7-60.5,21.3-115,21.3
				S33.9,751.1,42.9,739.4z"/>
				<polygon id="XMLID_45_" class="st0" points="202.8,732.8 130.8,735 144,723.3 80.3,739.4 107.6,755.4 120.8,743.8 187.8,746
				"/>
		</g>
			<g id="XMLID_106_">
			<path id="XMLID_145_" class="st26" d="M356.2,189.8c-1.9,0.4-3.3-1.6-4.2-5.9c-0.5-2.3-0.7-4.2-0.6-5.6c0.1-1.4,0.6-2.6,1.4-3.9
				s2.1-2,3.7-2.3c1.6-0.3,3-0.3,4.2,0c1.2,0.4,2.2,0.9,3,1.6s1.5,1.7,2.1,3c0.9,1.9,1.8,4.4,2.5,7.7s1.1,6.6,1.2,10.2
				c0.1,3.5,0.1,6.7-0.1,9.4c-0.5,7.3,0.2,15.6,2.2,25.1c0.7,3.2,1.2,5.4,1.5,6.7c-1.2,0.3-1.8,0.4-2,0.6c-0.2,0.1-0.3,0.2-0.4,0.2
				c-1.2,0.3-2.2-0.3-2.9-1.7c-1.6-7.3-2.4-15.9-2.6-25.7c-0.2-9.8-0.9-17.7-2.2-23.8c-1.3-6.1-3-8.9-4.9-8.5
				c-1.3,0.3-1.6,1.9-0.9,4.8c0.1,0.5,0.7,2.3,1.8,5.3c0.1,0.3-0.3,0.8-1,1.5S356.6,189.7,356.2,189.8z M376.1,243.3
				c0.5,2.5-0.5,4.1-3.2,4.7c-0.9,0.2-1.8,0-2.7-0.6c-0.9-0.6-1.4-1.4-1.6-2.3c-0.2-0.9,0-1.9,0.6-2.9c0.6-1,1.4-1.6,2.3-1.8
				c0.9-0.2,1.9,0,2.8,0.7C375.4,241.8,376,242.5,376.1,243.3z"/>
		</g>
	</g>
</g>
</svg>
